<mxfile host="app.diagrams.net" agent="Mozilla/5.0 (Windows NT 10.0; Win64; x64) AppleWebKit/537.36 (KHTML, like Gecko) Chrome/136.0.0.0 Safari/537.36" version="27.0.9">
  <diagram name="Page-1" id="twJZ2v6LvwREacb8eJs8">
    <mxGraphModel dx="2176" dy="697" grid="1" gridSize="10" guides="1" tooltips="1" connect="1" arrows="1" fold="1" page="1" pageScale="1" pageWidth="850" pageHeight="1100" math="0" shadow="0" adaptiveColors="simple">
      <root>
        <mxCell id="0" />
        <mxCell id="1" parent="0" />
        <mxCell id="aka2luF6I5FDbAvH_YdM-3" style="edgeStyle=orthogonalEdgeStyle;rounded=1;orthogonalLoop=1;jettySize=auto;html=1;labelBackgroundColor=none;strokeColor=#E07A5F;fontColor=default;" edge="1" parent="1" source="aka2luF6I5FDbAvH_YdM-1">
          <mxGeometry relative="1" as="geometry">
            <mxPoint x="410" y="430" as="targetPoint" />
          </mxGeometry>
        </mxCell>
        <mxCell id="aka2luF6I5FDbAvH_YdM-1" value="Security&lt;br&gt;check" style="rounded=1;whiteSpace=wrap;html=1;labelBackgroundColor=none;fillColor=#F2CC8F;strokeColor=#E07A5F;fontColor=#393C56;" vertex="1" parent="1">
          <mxGeometry x="80" y="400" width="120" height="60" as="geometry" />
        </mxCell>
        <mxCell id="aka2luF6I5FDbAvH_YdM-4" value="Employee" style="rounded=1;whiteSpace=wrap;html=1;labelBackgroundColor=none;fillColor=#F2CC8F;strokeColor=#E07A5F;fontColor=#393C56;" vertex="1" parent="1">
          <mxGeometry x="410" y="400" width="120" height="60" as="geometry" />
        </mxCell>
        <mxCell id="aka2luF6I5FDbAvH_YdM-13" style="edgeStyle=orthogonalEdgeStyle;rounded=1;orthogonalLoop=1;jettySize=auto;html=1;entryX=0;entryY=0.5;entryDx=0;entryDy=0;labelBackgroundColor=none;strokeColor=#E07A5F;fontColor=default;" edge="1" parent="1" source="aka2luF6I5FDbAvH_YdM-6" target="aka2luF6I5FDbAvH_YdM-10">
          <mxGeometry relative="1" as="geometry" />
        </mxCell>
        <mxCell id="aka2luF6I5FDbAvH_YdM-32" style="edgeStyle=orthogonalEdgeStyle;rounded=1;orthogonalLoop=1;jettySize=auto;html=1;exitX=0.5;exitY=1;exitDx=0;exitDy=0;entryX=0.5;entryY=0;entryDx=0;entryDy=0;labelBackgroundColor=none;strokeColor=#E07A5F;fontColor=default;" edge="1" parent="1" source="aka2luF6I5FDbAvH_YdM-6" target="aka2luF6I5FDbAvH_YdM-4">
          <mxGeometry relative="1" as="geometry" />
        </mxCell>
        <mxCell id="aka2luF6I5FDbAvH_YdM-6" value="Manager" style="rounded=1;whiteSpace=wrap;html=1;labelBackgroundColor=none;fillColor=#F2CC8F;strokeColor=#E07A5F;fontColor=#393C56;" vertex="1" parent="1">
          <mxGeometry x="410" y="190" width="120" height="60" as="geometry" />
        </mxCell>
        <mxCell id="aka2luF6I5FDbAvH_YdM-7" value="" style="endArrow=classic;html=1;rounded=1;entryX=0;entryY=0.5;entryDx=0;entryDy=0;labelBackgroundColor=none;strokeColor=#E07A5F;fontColor=default;" edge="1" parent="1" target="aka2luF6I5FDbAvH_YdM-6">
          <mxGeometry width="50" height="50" relative="1" as="geometry">
            <mxPoint x="290" y="430" as="sourcePoint" />
            <mxPoint x="200" y="320" as="targetPoint" />
            <Array as="points">
              <mxPoint x="290" y="220" />
              <mxPoint x="350" y="220" />
            </Array>
          </mxGeometry>
        </mxCell>
        <mxCell id="aka2luF6I5FDbAvH_YdM-8" value="" style="endArrow=classic;html=1;rounded=1;entryX=0;entryY=0.5;entryDx=0;entryDy=0;labelBackgroundColor=none;strokeColor=#E07A5F;fontColor=default;" edge="1" parent="1" target="aka2luF6I5FDbAvH_YdM-9">
          <mxGeometry width="50" height="50" relative="1" as="geometry">
            <mxPoint x="290" y="430" as="sourcePoint" />
            <mxPoint x="410" y="560" as="targetPoint" />
            <Array as="points">
              <mxPoint x="290" y="630" />
            </Array>
          </mxGeometry>
        </mxCell>
        <mxCell id="aka2luF6I5FDbAvH_YdM-31" style="edgeStyle=orthogonalEdgeStyle;rounded=1;orthogonalLoop=1;jettySize=auto;html=1;exitX=1;exitY=0.5;exitDx=0;exitDy=0;entryX=0;entryY=0.25;entryDx=0;entryDy=0;labelBackgroundColor=none;strokeColor=#E07A5F;fontColor=default;" edge="1" parent="1" source="aka2luF6I5FDbAvH_YdM-9" target="aka2luF6I5FDbAvH_YdM-26">
          <mxGeometry relative="1" as="geometry" />
        </mxCell>
        <mxCell id="aka2luF6I5FDbAvH_YdM-9" value="Customer" style="rounded=1;whiteSpace=wrap;html=1;labelBackgroundColor=none;fillColor=#F2CC8F;strokeColor=#E07A5F;fontColor=#393C56;" vertex="1" parent="1">
          <mxGeometry x="400" y="600" width="120" height="60" as="geometry" />
        </mxCell>
        <mxCell id="aka2luF6I5FDbAvH_YdM-10" value="Manager_Bank_Details" style="rounded=1;whiteSpace=wrap;html=1;labelBackgroundColor=none;fillColor=#F2CC8F;strokeColor=#E07A5F;fontColor=#393C56;" vertex="1" parent="1">
          <mxGeometry x="570" y="140" width="160" height="60" as="geometry" />
        </mxCell>
        <mxCell id="aka2luF6I5FDbAvH_YdM-11" value="Manager_Personal_Details" style="rounded=1;whiteSpace=wrap;html=1;labelBackgroundColor=none;fillColor=#F2CC8F;strokeColor=#E07A5F;fontColor=#393C56;" vertex="1" parent="1">
          <mxGeometry x="570" y="230" width="160" height="60" as="geometry" />
        </mxCell>
        <mxCell id="aka2luF6I5FDbAvH_YdM-17" value="" style="endArrow=classic;startArrow=classic;html=1;rounded=1;entryX=1;entryY=0.5;entryDx=0;entryDy=0;exitX=1;exitY=0.5;exitDx=0;exitDy=0;labelBackgroundColor=none;strokeColor=#E07A5F;fontColor=default;" edge="1" parent="1" source="aka2luF6I5FDbAvH_YdM-11" target="aka2luF6I5FDbAvH_YdM-10">
          <mxGeometry width="50" height="50" relative="1" as="geometry">
            <mxPoint x="750" y="250" as="sourcePoint" />
            <mxPoint x="800" y="200" as="targetPoint" />
            <Array as="points">
              <mxPoint x="810" y="260" />
              <mxPoint x="810" y="170" />
            </Array>
          </mxGeometry>
        </mxCell>
        <mxCell id="aka2luF6I5FDbAvH_YdM-18" value="Manager ID" style="edgeLabel;html=1;align=center;verticalAlign=middle;resizable=0;points=[];labelBackgroundColor=none;fontColor=#393C56;rounded=1;" vertex="1" connectable="0" parent="aka2luF6I5FDbAvH_YdM-17">
          <mxGeometry x="0.0606" y="1" relative="1" as="geometry">
            <mxPoint as="offset" />
          </mxGeometry>
        </mxCell>
        <mxCell id="aka2luF6I5FDbAvH_YdM-19" value="Employee_Bank_Details" style="rounded=1;whiteSpace=wrap;html=1;labelBackgroundColor=none;fillColor=#F2CC8F;strokeColor=#E07A5F;fontColor=#393C56;" vertex="1" parent="1">
          <mxGeometry x="570" y="348" width="160" height="60" as="geometry" />
        </mxCell>
        <mxCell id="aka2luF6I5FDbAvH_YdM-20" value="Employee_Personal_Details" style="rounded=1;whiteSpace=wrap;html=1;labelBackgroundColor=none;fillColor=#F2CC8F;strokeColor=#E07A5F;fontColor=#393C56;" vertex="1" parent="1">
          <mxGeometry x="570" y="438" width="160" height="60" as="geometry" />
        </mxCell>
        <mxCell id="aka2luF6I5FDbAvH_YdM-21" value="" style="endArrow=classic;startArrow=classic;html=1;rounded=1;entryX=1;entryY=0.5;entryDx=0;entryDy=0;exitX=1;exitY=0.5;exitDx=0;exitDy=0;labelBackgroundColor=none;strokeColor=#E07A5F;fontColor=default;" edge="1" source="aka2luF6I5FDbAvH_YdM-20" target="aka2luF6I5FDbAvH_YdM-19" parent="1">
          <mxGeometry width="50" height="50" relative="1" as="geometry">
            <mxPoint x="750" y="458" as="sourcePoint" />
            <mxPoint x="800" y="408" as="targetPoint" />
            <Array as="points">
              <mxPoint x="810" y="468" />
              <mxPoint x="810" y="378" />
            </Array>
          </mxGeometry>
        </mxCell>
        <mxCell id="aka2luF6I5FDbAvH_YdM-25" value="Emp ID" style="edgeLabel;html=1;align=center;verticalAlign=middle;resizable=0;points=[];labelBackgroundColor=none;fontColor=#393C56;rounded=1;" vertex="1" connectable="0" parent="aka2luF6I5FDbAvH_YdM-21">
          <mxGeometry x="0.0156" y="-1" relative="1" as="geometry">
            <mxPoint as="offset" />
          </mxGeometry>
        </mxCell>
        <mxCell id="aka2luF6I5FDbAvH_YdM-23" style="edgeStyle=orthogonalEdgeStyle;rounded=1;orthogonalLoop=1;jettySize=auto;html=1;entryX=-0.017;entryY=0.387;entryDx=0;entryDy=0;entryPerimeter=0;labelBackgroundColor=none;strokeColor=#E07A5F;fontColor=default;" edge="1" parent="1" source="aka2luF6I5FDbAvH_YdM-4" target="aka2luF6I5FDbAvH_YdM-19">
          <mxGeometry relative="1" as="geometry" />
        </mxCell>
        <mxCell id="aka2luF6I5FDbAvH_YdM-26" value="Customer_Bank_Details" style="rounded=1;whiteSpace=wrap;html=1;labelBackgroundColor=none;fillColor=#F2CC8F;strokeColor=#E07A5F;fontColor=#393C56;" vertex="1" parent="1">
          <mxGeometry x="560" y="548" width="160" height="60" as="geometry" />
        </mxCell>
        <mxCell id="aka2luF6I5FDbAvH_YdM-27" value="Customer_Personal_Details" style="rounded=1;whiteSpace=wrap;html=1;labelBackgroundColor=none;fillColor=#F2CC8F;strokeColor=#E07A5F;fontColor=#393C56;" vertex="1" parent="1">
          <mxGeometry x="560" y="638" width="160" height="60" as="geometry" />
        </mxCell>
        <mxCell id="aka2luF6I5FDbAvH_YdM-28" value="" style="endArrow=classic;startArrow=classic;html=1;rounded=1;entryX=1;entryY=0.5;entryDx=0;entryDy=0;exitX=1;exitY=0.5;exitDx=0;exitDy=0;labelBackgroundColor=none;strokeColor=#E07A5F;fontColor=default;" edge="1" source="aka2luF6I5FDbAvH_YdM-27" target="aka2luF6I5FDbAvH_YdM-26" parent="1">
          <mxGeometry width="50" height="50" relative="1" as="geometry">
            <mxPoint x="740" y="658" as="sourcePoint" />
            <mxPoint x="790" y="608" as="targetPoint" />
            <Array as="points">
              <mxPoint x="800" y="668" />
              <mxPoint x="800" y="578" />
            </Array>
          </mxGeometry>
        </mxCell>
        <mxCell id="aka2luF6I5FDbAvH_YdM-29" value="Customer ID" style="edgeLabel;html=1;align=center;verticalAlign=middle;resizable=0;points=[];labelBackgroundColor=none;fontColor=#393C56;rounded=1;" vertex="1" connectable="0" parent="aka2luF6I5FDbAvH_YdM-28">
          <mxGeometry x="0.0156" y="-1" relative="1" as="geometry">
            <mxPoint as="offset" />
          </mxGeometry>
        </mxCell>
        <mxCell id="aka2luF6I5FDbAvH_YdM-33" style="edgeStyle=orthogonalEdgeStyle;rounded=1;orthogonalLoop=1;jettySize=auto;html=1;entryX=0.587;entryY=-0.007;entryDx=0;entryDy=0;entryPerimeter=0;labelBackgroundColor=none;strokeColor=#E07A5F;fontColor=default;" edge="1" parent="1" source="aka2luF6I5FDbAvH_YdM-4" target="aka2luF6I5FDbAvH_YdM-9">
          <mxGeometry relative="1" as="geometry" />
        </mxCell>
        <mxCell id="aka2luF6I5FDbAvH_YdM-39" style="edgeStyle=orthogonalEdgeStyle;rounded=1;orthogonalLoop=1;jettySize=auto;html=1;entryX=0.5;entryY=0;entryDx=0;entryDy=0;strokeColor=#E07A5F;fontColor=#393C56;fillColor=#F2CC8F;" edge="1" parent="1" source="aka2luF6I5FDbAvH_YdM-34" target="aka2luF6I5FDbAvH_YdM-37">
          <mxGeometry relative="1" as="geometry" />
        </mxCell>
        <mxCell id="aka2luF6I5FDbAvH_YdM-34" value="Forgot Password" style="rounded=1;whiteSpace=wrap;html=1;strokeColor=#E07A5F;fontColor=#393C56;fillColor=#F2CC8F;" vertex="1" parent="1">
          <mxGeometry x="90" y="270" width="120" height="60" as="geometry" />
        </mxCell>
        <mxCell id="aka2luF6I5FDbAvH_YdM-35" style="edgeStyle=orthogonalEdgeStyle;rounded=1;orthogonalLoop=1;jettySize=auto;html=1;entryX=0.422;entryY=0.998;entryDx=0;entryDy=0;entryPerimeter=0;strokeColor=#E07A5F;fontColor=#393C56;fillColor=#F2CC8F;" edge="1" parent="1" source="aka2luF6I5FDbAvH_YdM-1" target="aka2luF6I5FDbAvH_YdM-34">
          <mxGeometry relative="1" as="geometry" />
        </mxCell>
        <mxCell id="aka2luF6I5FDbAvH_YdM-38" style="edgeStyle=orthogonalEdgeStyle;rounded=1;orthogonalLoop=1;jettySize=auto;html=1;entryX=0;entryY=0.5;entryDx=0;entryDy=0;strokeColor=#E07A5F;fontColor=#393C56;fillColor=#F2CC8F;" edge="1" parent="1" source="aka2luF6I5FDbAvH_YdM-37" target="aka2luF6I5FDbAvH_YdM-1">
          <mxGeometry relative="1" as="geometry" />
        </mxCell>
        <mxCell id="aka2luF6I5FDbAvH_YdM-37" value="LOGIN" style="rounded=0;whiteSpace=wrap;html=1;strokeColor=#E07A5F;fontColor=#393C56;fillColor=#F2CC8F;" vertex="1" parent="1">
          <mxGeometry x="-100" y="400" width="120" height="60" as="geometry" />
        </mxCell>
      </root>
    </mxGraphModel>
  </diagram>
</mxfile>
